<svg width="128" height="55" viewBox="0 0 128 55" fill="none" xmlns="http://www.w3.org/2000/svg">
<path d="M106.289 21.0335C111.08 21.0335 114.963 17.1502 114.963 12.3599C114.963 7.56955 111.08 3.68622 106.289 3.68622C101.499 3.68622 97.6157 7.56955 97.6157 12.3599C97.6157 17.1502 101.499 21.0335 106.289 21.0335Z" fill="#9E616A"/>
<path d="M128 36.945C123.047 42.581 116.076 46.0431 108.592 46.584C101.108 47.1248 93.7121 44.701 88 39.8358L90.4523 32.9931C91.0064 31.7778 91.881 30.7362 92.9821 29.9801C94.0832 29.2239 95.3694 28.7818 96.7027 28.701L98.2627 28.6053L101.983 25.3969C101.983 25.3969 112.006 25.039 111.857 24.8676L117.929 28.5196L117.924 28.4944L120.311 28.6405C121.644 28.721 122.93 29.163 124.031 29.9191C125.133 30.6753 126.007 31.7171 126.561 32.9326L128 36.945Z" fill="#191919"/>
<path d="M116.68 9.27421C116.635 8.39411 116.405 7.53344 116.003 6.74892C115.602 5.9644 115.039 5.27385 114.351 4.72281C113.846 4.32304 113.261 3.98545 112.926 3.4347C112.735 3.04479 112.573 2.64133 112.442 2.22758C111.776 0.642715 109.879 -0.199601 108.176 0.0403862C106.474 0.280374 105.001 1.42538 104.009 2.82917C103.52 2.59491 102.974 2.50566 102.436 2.57197C101.898 2.63828 101.39 2.85738 100.973 3.20334C100.555 3.54929 100.246 4.00759 100.081 4.524C99.916 5.0404 99.9024 5.59327 100.042 6.11713C99.1604 5.40702 97.7345 5.97505 97.1842 6.96425C96.634 7.95344 96.7213 9.16387 96.8849 10.2839C97.1813 12.3083 97.675 14.2988 98.359 16.2269C99.2173 15.4711 99.1645 14.0947 99.0596 12.9312C98.9506 11.7224 99.0159 10.2465 100.073 9.65003C101.094 9.07374 102.334 9.70642 103.46 10.0337C104.35 10.2858 105.284 10.3419 106.198 10.1981C107.113 10.0544 107.985 9.71411 108.754 9.20083C109.341 8.80394 109.863 8.30685 110.496 7.98787C111.128 7.66889 111.933 7.55812 112.521 7.95183C113.059 8.31137 113.278 8.98198 113.46 9.60234C113.894 11.0726 114.328 12.5429 114.761 14.0131C115.398 13.4036 115.898 12.6661 116.228 11.8493C116.559 11.0325 116.713 10.1548 116.68 9.27421Z" fill="#2F2E41"/>
<path d="M61.7618 28.9535C66.8021 28.9535 70.8882 24.8675 70.8882 19.8271C70.8882 14.7868 66.8021 10.7007 61.7618 10.7007C56.7214 10.7007 52.6354 14.7868 52.6354 19.8271C52.6354 24.8675 56.7214 28.9535 61.7618 28.9535Z" fill="#FFB6B6"/>
<path d="M84 44.5411C79.0468 50.1771 72.0759 53.6392 64.5922 54.18C57.1084 54.7209 49.7121 52.2971 44 47.4319L46.4523 40.5892C47.0064 39.3738 47.881 38.3323 48.9821 37.5761C50.0832 36.82 51.3694 36.3779 52.7027 36.2971L54.2628 36.2013L57.9827 32.993C57.9827 32.993 68.0061 32.6351 67.8574 32.4637L73.9288 36.1156L73.9238 36.0904L76.3105 36.2366C77.6439 36.317 78.9302 36.759 80.0314 37.5152C81.1325 38.2714 82.007 39.3131 82.5609 40.5287L84 44.5411Z" fill="#191919"/>
<path d="M71.3871 14.1672C70.6158 11.4068 68.8637 9.02287 66.4594 7.46279C64.5434 6.23727 62.1524 5.61162 59.9818 6.25972C57.8111 6.90782 56.0139 9.03807 56.156 11.3397C55.3725 11.0731 54.4817 11.4278 53.9082 12.0339C53.3346 12.64 53.0262 13.4552 52.8053 14.2668C52.1088 16.8473 52.1549 19.5721 52.9385 22.1276L52.8954 22.4944C53.9544 22.3192 54.7577 21.4105 55.2572 20.4424C55.7567 19.4743 56.0441 18.4003 56.5855 17.4559C57.1269 16.5115 58.0259 15.669 59.0984 15.6395L59.0039 17.2789C59.9266 16.8035 60.8493 16.3281 61.772 15.8527C61.5525 16.3777 61.333 16.9027 61.1135 17.4278C61.9193 17.091 62.7252 16.7542 63.531 16.4174C63.4409 16.9222 63.3508 17.4271 63.2607 17.9319C64.0599 16.1129 66.5314 15.3138 68.2126 16.3308C69.189 16.9215 69.8296 17.9741 70.1666 19.0795C70.5035 20.1849 70.5702 21.3543 70.6345 22.51C71.8796 19.9098 72.1468 16.9482 71.3871 14.1672Z" fill="#2F2E41"/>
<path d="M5.5325 14.8962C6.71471 11.1286 9.40309 7.67304 13.121 6.39937C16.8392 5.1257 22.2836 7.06591 25.0788 9.8517C30.1918 14.9475 31.4396 32.4532 27.9268 37.9852C27.228 37.9482 24.817 37.9209 24.1098 37.8944L23.1094 34.5601V37.8615C21.9828 37.8267 20.8473 37.8027 19.703 37.7894C15.8665 37.7418 12.1978 36.2087 9.46827 33.5122C6.73871 30.8157 5.1609 27.166 5.06652 23.3304C4.97498 19.661 5.06662 16.381 5.5325 14.8962Z" fill="#2F2E41"/>
<path d="M18.3598 27.3831C22.8599 27.3831 26.5079 23.7351 26.5079 19.235C26.5079 14.7349 22.8599 11.0869 18.3598 11.0869C13.8598 11.0869 10.2117 14.7349 10.2117 19.235C10.2117 23.7351 13.8598 27.3831 18.3598 27.3831Z" fill="#9E616A"/>
<path d="M11.3279 12.079L20.7096 7.38135C22.6277 8.24566 24.2796 9.60736 25.494 11.3252C26.7084 13.0431 27.4411 15.0546 27.6161 17.1511L27.85 19.9522L23.9214 18.9521L23.4909 15.3704L22.8238 18.6727L21.0108 18.2114L21.028 12.6509L19.2139 18.2074L12.7385 16.7197L11.3279 12.079Z" fill="#2F2E41"/>
<path d="M40 43.1167C35.0468 48.7528 28.0759 52.2149 20.5921 52.7557C13.1084 53.2966 5.71214 50.8728 0 46.0076L2.45227 39.1649C3.00644 37.9495 3.88098 36.9079 4.98209 36.1518C6.08321 35.3957 7.36937 34.9535 8.70267 34.8728L10.2627 34.777L13.9827 31.5686C13.9827 31.5686 24.0061 31.2107 23.8574 31.0394L29.9288 34.6913L29.9238 34.6661L32.3105 34.8123C33.6439 34.8927 34.9302 35.3347 36.0314 36.0909C37.1325 36.8471 38.007 37.8888 38.5609 39.1044L40 43.1167Z" fill="#191919"/>
</svg>
