<svg width="203" height="162" viewBox="0 0 203 162" fill="none" xmlns="http://www.w3.org/2000/svg">
<path d="M189 69C189 119.81 198.191 161.5 146 161.5C93.8091 161.5 0 119.81 0 69C0 18.1898 16.8091 2.5 69 2.5C121.191 2.5 189 18.1898 189 69Z" fill="#FFD84E"/>
<g clip-path="url(#clip0_606_1630)">
<path d="M81.1602 51.6396C81.1602 51.6396 71.6579 50.969 69.4651 51.6999C67.2722 52.4309 62.8865 62.1159 62.8865 62.1159L76.9573 62.6641L82.9876 61.385L81.1602 51.6396Z" fill="#2F2E41"/>
<path d="M128.124 116.208L128.672 93.13L145.484 92.8175V116.208H128.124Z" fill="#3F3D56"/>
<path d="M95.6677 67.2563C96.7897 68.784 96.9706 70.785 97.1113 72.6745C97.3842 76.3292 97.6558 79.9839 97.9263 83.6387C98.109 86.0928 98.2918 88.5726 97.8642 91.003C97.8412 91.1962 97.779 91.3828 97.6814 91.5512C97.4877 91.8399 97.1332 91.955 96.786 92.0336C93.4346 92.8175 89.9352 92.0482 86.5802 91.2789C85.9625 86.6556 86.9621 81.9483 88.5556 77.5736C89.5277 74.9038 90.7173 72.3236 91.9161 69.7507C92.4076 68.6999 92.87 66.7958 93.6722 65.9735C94.5786 65.0287 95.0646 66.4376 95.6677 67.2563Z" fill="#2F2E41"/>
<path opacity="0.1" d="M95.6677 67.2563C96.7897 68.784 96.9706 70.785 97.1113 72.6745C97.3842 76.3292 97.6558 79.9839 97.9263 83.6387C98.109 86.0928 98.2918 88.5726 97.8642 91.003C97.8412 91.1962 97.779 91.3828 97.6814 91.5512C97.4877 91.8399 97.1332 91.955 96.786 92.0336C93.4346 92.8175 89.9352 92.0482 86.5802 91.2789C85.9625 86.6556 86.9621 81.9483 88.5556 77.5736C89.5277 74.9038 90.7173 72.3236 91.9161 69.7507C92.4076 68.6999 92.87 66.7958 93.6722 65.9735C94.5786 65.0287 95.0646 66.4376 95.6677 67.2563Z" fill="black"/>
<path d="M106.937 85.3308C107.688 84.5524 108.461 83.7593 109.433 83.2842C110.641 82.6921 112.034 82.6538 113.362 82.4326C114.406 82.2499 115.434 81.9648 116.492 81.91C117.55 81.8552 118.685 82.0781 119.455 82.7981C120.368 83.6387 120.602 84.9526 120.789 86.1733C121.236 89.1208 121.58 92.3607 119.983 94.877C118.903 96.5801 117.033 97.6967 115.06 98.1023C113.835 98.3545 112.574 98.3545 111.325 98.3527L99.5929 98.3399C99.3754 98.3399 99.5253 94.93 99.5764 94.6139C99.7353 93.5739 100.142 92.5873 100.762 91.7376C102.508 89.4333 104.925 87.4177 106.937 85.3308Z" fill="#A0616A"/>
<path opacity="0.1" d="M106.937 85.3308C107.688 84.5524 108.461 83.7593 109.433 83.2842C110.641 82.6921 112.034 82.6538 113.362 82.4326C114.406 82.2499 115.434 81.9648 116.492 81.91C117.55 81.8552 118.685 82.0781 119.455 82.7981C120.368 83.6387 120.602 84.9526 120.789 86.1733C121.236 89.1208 121.58 92.3607 119.983 94.877C118.903 96.5801 117.033 97.6967 115.06 98.1023C113.835 98.3545 112.574 98.3545 111.325 98.3527L99.5929 98.3399C99.3754 98.3399 99.5253 94.93 99.5764 94.6139C99.7353 93.5739 100.142 92.5873 100.762 91.7376C102.508 89.4333 104.925 87.4177 106.937 85.3308Z" fill="black"/>
<path d="M60.0431 42.6708L57.7699 45.6513C56.1399 47.7911 54.2412 50.0954 51.5824 50.4993C51.418 51.0585 51.9662 51.5518 52.4523 51.8716C59.3652 56.4072 67.4221 59.3109 75.6818 59.6818C76.7453 59.7312 78.0573 59.5813 78.463 58.5945C78.8285 57.7009 78.1597 56.7288 77.447 56.0764C76.378 55.0951 75.0056 54.1394 74.9015 52.6921C74.832 51.72 75.3802 50.8282 75.6982 49.9054C76.1313 48.6482 76.1404 47.2904 76.1459 45.9619C76.1459 45.4832 76.1459 44.9879 75.9632 44.5457C75.7852 44.1777 75.5368 43.8481 75.2322 43.5754C72.7525 41.1249 69.4066 39.9207 66.2471 38.625C65.1872 38.1883 63.2392 36.7648 62.3109 37.9873C61.876 38.5593 61.8815 39.6319 61.5617 40.3154C61.1393 41.1515 60.6303 41.941 60.0431 42.6708Z" fill="#A0616A"/>
<path opacity="0.1" d="M60.0431 42.6708L57.7699 45.6513C56.1399 47.7911 54.2412 50.0954 51.5824 50.4993C51.418 51.0585 51.9662 51.5518 52.4523 51.8716C59.3652 56.4072 67.4221 59.3109 75.6818 59.6818C76.7453 59.7312 78.0573 59.5813 78.463 58.5945C78.8285 57.7009 78.1597 56.7288 77.447 56.0764C76.378 55.0951 75.0056 54.1394 74.9015 52.6921C74.832 51.72 75.3802 50.8282 75.6982 49.9054C76.1313 48.6482 76.1404 47.2904 76.1459 45.9619C76.1459 45.4832 76.1459 44.9879 75.9632 44.5457C75.7852 44.1777 75.5368 43.8481 75.2322 43.5754C72.7525 41.1249 69.4066 39.9207 66.2471 38.625C65.1872 38.1883 63.2392 36.7648 62.3109 37.9873C61.876 38.5593 61.8815 39.6319 61.5617 40.3154C61.1393 41.1515 60.6303 41.941 60.0431 42.6708Z" fill="black"/>
<path d="M74.673 47.5902C83.1506 47.5902 90.0229 40.7178 90.0229 32.2403C90.0229 23.7628 83.1506 16.8904 74.673 16.8904C66.1955 16.8904 59.3232 23.7628 59.3232 32.2403C59.3232 40.7178 66.1955 47.5902 74.673 47.5902Z" fill="#A0616A"/>
<path d="M70.6272 57.0066C68.4344 57.4762 66.1612 56.8129 64.0103 56.1569C60.9148 55.2121 57.5798 54.0938 55.7744 51.4057C55.3541 50.7789 55.0014 50.0535 54.3454 49.6825C52.9292 48.8803 51.29 50.1759 50.1077 51.2924C44.3405 56.738 36.5852 60.2794 32.4371 67.037C30.0706 70.8946 29.1167 75.463 28.8682 79.9839C28.7421 82.2754 28.7915 84.6163 29.4767 86.8055C31.538 93.384 38.778 97.2452 41.0312 103.76C42.3999 107.716 41.4113 111.539 40.8302 115.685L95.717 115.799C94.6309 107.99 94.1927 100.106 94.4068 92.2255C94.4525 90.5315 94.5292 88.8229 94.9459 87.1783C95.2858 85.8388 95.8596 84.5322 95.8723 83.1581C95.9125 80.6308 94.1327 78.2607 94.5073 75.7609C94.8819 73.261 97.3269 71.1925 96.8719 68.7292C96.3237 65.8054 95.6951 62.6586 94.4634 59.9578C93.8239 58.5471 93.1039 57.1382 92.0202 56.029C90.9366 54.9197 89.5661 54.176 88.1554 53.5657C84.7968 52.1172 81.172 51.3888 77.5146 51.4276C77.1841 51.4098 76.8536 51.464 76.5461 51.5866C75.6452 52.0179 75.6525 53.266 75.3821 54.229C74.8594 56.0929 72.4674 57.6023 70.6272 57.0066Z" fill="#2F2E41"/>
<path d="M91.2741 77.6582L90.9428 77.8125L93.3351 82.9474L93.6664 82.7931L91.2741 77.6582Z" fill="#D0D2D5"/>
<path d="M93.5755 80.2131L91.5878 81.1392L99.0733 97.2065L101.061 96.2805L93.5755 80.2131Z" fill="#191919"/>
<path d="M32.618 91.4324C31.94 96.1361 34.0927 100.721 35.127 105.361C35.8926 108.794 36.0407 112.336 36.0516 115.853C36.1558 115.82 36.1375 115.888 36.2344 115.853H73.7466C79.7513 110.496 85.9242 105.059 93.8202 103.499C94.9532 103.276 96.1081 103.133 97.2009 102.768C101.375 101.361 103.721 97.037 105.548 93.0295C106.197 91.606 106.827 89.8992 106.033 88.5488C105.75 88.1073 105.382 87.7265 104.951 87.4286C103.725 86.5318 102.302 85.943 100.801 85.7121C99.3002 85.4812 97.7657 85.6149 96.3274 86.102C91.0536 87.9421 88.4697 93.9779 83.7368 96.9328C81.544 98.2978 78.9948 98.9429 76.6393 99.9918C73.1216 101.565 70.0608 104.05 66.5175 105.556C61.717 107.594 56.3263 107.718 51.3504 109.278C53.1503 107.212 53.7698 104.297 53.4427 101.576C53.1156 98.8552 51.9296 96.306 50.4787 93.9816C49.1776 91.8984 47.5092 89.8517 45.1793 89.0916C41.0531 87.7484 36.8794 90.6631 32.618 91.4324Z" fill="#A0616A"/>
<path d="M60.3282 39.2811C61.8943 38.0695 62.1958 37.0462 62.585 35.1056C62.8281 33.8904 62.8536 32.5089 63.7381 31.6336C65.5344 29.872 69.0155 31.84 70.9196 30.1954C72.1074 29.1721 72.0471 27.2223 73.1545 26.1131C73.9677 25.2962 75.2158 25.1281 76.3689 25.077C78.1082 25.0003 79.8508 25.0897 81.5732 25.3438C82.803 25.5265 84.0274 25.7896 85.27 25.7805C87.7552 25.7622 90.0869 24.6585 92.3254 23.5785C92.1486 23.5682 91.9776 23.5108 91.8305 23.4121C91.6833 23.3135 91.5652 23.1772 91.4885 23.0175C92.3551 22.5601 93.252 22.1626 94.1729 21.8279C93.9317 21.086 92.3126 21.678 92.2304 20.8996C92.2325 20.6972 92.3078 20.5025 92.4424 20.3514L94.0212 18.1001C92.521 18.4838 91.0061 17.4459 90.0613 16.2179C89.1166 14.9899 88.4825 13.5188 87.3733 12.437C85.153 10.2753 81.692 10.2168 78.6019 10.2935L72.8768 10.4342C70.2198 10.5 67.5335 10.5713 64.9606 11.2401C63.7911 11.5435 62.638 11.9711 61.6549 12.6837C60.4196 13.57 59.5096 14.8382 58.34 15.8085C56.774 17.1078 54.7346 17.8899 53.5688 19.5565C52.839 20.6131 52.5421 21.9094 52.7392 23.1783C52.9676 24.5964 53.799 25.8518 54.1353 27.2497C54.7091 29.649 53.7698 32.2092 54.318 34.6176C54.7218 36.4231 55.906 37.9398 57.0591 39.3871C57.324 39.7197 57.642 40.0815 58.0659 40.0998C58.3267 40.0825 58.5814 40.0136 58.8152 39.8969" fill="#2F2E41"/>
<path d="M177.188 99.3047V103.142L169.148 113.193L84.5408 110.817V106.614L107.206 98.3527L177.188 99.3047Z" fill="#3F3D56"/>
<path opacity="0.1" d="M177.188 99.3047V103.142L169.148 113.193L84.5408 110.817V106.98L168.6 108.99L177.188 99.3047Z" fill="black"/>
<path d="M177.188 96.0154V99.3046L168.6 108.99L106.469 107.504V103.508L126.753 96.0154H177.188Z" fill="#D0D2D5"/>
<path opacity="0.1" d="M177.188 96.0154V99.3046L168.6 108.99L106.469 107.504V103.508L168.6 105.152L177.188 96.0154Z" fill="black"/>
<path d="M128.032 99.3046L128.58 58.9198L145.392 58.3716V99.3046H128.032Z" fill="#3F3D56"/>
<path opacity="0.1" d="M31.4667 72.5904C30.8601 75.0354 30.2515 77.4877 29.9464 79.9876C29.536 83.3639 29.6842 86.7848 30.3849 90.113C30.5914 91.0906 30.8454 92.0683 30.8418 93.0679C30.8381 94.0674 30.5366 95.1127 29.7965 95.7815C34.449 92.7298 40.7242 92.3369 45.722 94.7838C48.1598 95.977 50.581 97.8464 53.2618 97.4225C53.5085 95.9186 52.0484 94.4987 52.3901 93.0057C52.6405 91.9203 53.7789 91.2295 54.0932 90.1605C54.4971 88.7955 53.4463 87.4779 52.9804 86.1403C52.7754 85.4721 52.6365 84.7854 52.5655 84.09C52.1745 81.2484 51.6519 78.3996 50.5828 75.7371C49.5138 73.0746 47.8619 70.5894 45.5411 68.9009C44.1377 67.8794 42.5333 67.185 40.9015 66.6185C39.6132 66.1727 37.7383 65.2827 36.3458 65.5221C33.3471 66.0594 32.0807 70.1271 31.4667 72.5904Z" fill="black"/>
<path d="M30.9185 72.0422C30.3118 74.4872 29.7033 76.9395 29.3982 79.4393C28.9878 82.8157 29.136 86.2366 29.8367 89.5648C30.0432 90.5424 30.2972 91.5201 30.2936 92.5196C30.2899 93.5192 29.9884 94.5645 29.2483 95.2333C33.9008 92.1816 40.176 91.7887 45.1738 94.2355C47.6115 95.4288 50.0328 97.2982 52.7136 96.8743C52.9602 95.3703 51.5002 93.9505 51.8419 92.4575C52.0922 91.3721 53.2307 90.6813 53.545 89.6123C53.9488 88.2473 52.8981 86.9297 52.4321 85.5921C52.2272 84.9239 52.0882 84.2371 52.0173 83.5418C51.6263 80.7002 51.1036 77.8514 50.0346 75.1889C48.9656 72.5264 47.3137 70.0412 44.9929 68.3527C43.5895 67.3312 41.9851 66.6368 40.3532 66.0703C39.0649 65.6244 37.1901 64.7345 35.7976 64.9739C32.7989 65.5111 31.5325 69.5789 30.9185 72.0422Z" fill="#2F2E41"/>
<path d="M173.883 67.6656C173.24 71.2966 170.603 74.2021 168.079 76.892C164.857 80.3256 161.828 83.7227 158.606 87.1582H117.287C116.893 87.1582 116.359 87.0814 115.977 87.1911L115.358 87.3738C112.289 85.117 109.914 82.0744 107.58 79.0593L103.355 73.6137C101.199 70.8325 98.9204 67.6181 99.4449 64.1388C99.478 63.767 99.612 63.4113 99.8323 63.11C100.048 62.886 100.306 62.7066 100.591 62.5819C106.438 59.6124 113.017 58.4703 119.321 56.6192C120.297 56.3323 121.331 55.9924 121.991 55.2231C122.883 54.1979 122.905 52.7086 123.181 51.3856C123.456 50.0626 124.049 48.7615 124.379 47.4202C124.761 45.8615 124.79 44.2424 124.816 42.6362C124.845 40.9087 124.874 39.1818 124.902 37.4556C124.93 35.7293 124.958 34.0146 124.986 32.3115C131.747 32.18 138.421 31.6592 145.153 32.1836C145.842 32.2384 146.587 32.3207 147.088 32.794C147.474 33.1594 147.636 33.693 147.777 34.2083C148.312 36.2513 148.555 38.3418 148.713 40.4506C148.941 43.506 148.992 46.5924 149.502 49.6094C149.783 51.2778 150.233 52.9827 151.304 54.2948C152.789 56.1221 155.183 56.8677 157.424 57.584C162.066 59.0605 166.635 60.7417 171.129 62.6276C171.803 62.9108 172.492 63.2105 173.007 63.724C174.005 64.7071 174.128 66.2823 173.883 67.6656Z" fill="#D0D2D5"/>
<path opacity="0.1" d="M148.713 40.4397C147.349 41.9216 144.648 42.8024 143.115 43.643C141.582 44.4836 140.009 45.3315 138.287 45.5051C136.254 45.7116 134.258 44.9569 132.352 44.226C131.327 43.8276 130.296 43.4256 129.368 42.8372C127.358 41.558 126.059 39.5771 124.902 37.4519C124.93 35.7378 124.958 34.0232 124.986 32.3079C131.747 32.1763 138.421 31.6555 145.153 32.1799C145.842 32.2348 146.587 32.317 147.088 32.7903C147.474 33.1558 147.636 33.6894 147.777 34.2047C148.32 36.2404 148.555 38.3309 148.713 40.4397Z" fill="black"/>
<path d="M151.748 31.3997C152.234 31.0342 152.81 30.7894 153.279 30.3983C153.759 29.9644 154.153 29.4451 154.443 28.867C155.275 27.3722 155.894 25.6892 155.761 23.9842C155.627 22.2793 154.602 20.5652 152.983 20.0152C154.001 16.8721 153.166 13.4641 152.314 10.2698C152.042 9.24102 151.766 8.20125 151.273 7.2565C150.284 5.36517 148.512 4.01475 146.704 2.88909C144.623 1.59348 142.37 0.49158 139.943 0.131588C137.43 -0.233886 134.85 0.206511 132.46 1.06355C131.181 1.52404 129.902 2.12342 128.948 3.10289C128.251 3.81739 127.758 4.70366 127.144 5.49126C126.15 6.77042 124.834 7.79192 124.012 9.18437C123.098 10.7285 122.888 12.5705 122.693 14.354L122.042 20.2765C121.611 19.6753 120.677 19.6205 120.032 19.9987C119.387 20.377 119.018 21.0732 118.778 21.7731C118.437 22.7906 118.325 23.8712 118.452 24.937C118.578 26.0029 118.939 27.0274 119.509 27.9368C120.016 28.7281 120.672 29.4115 121.251 30.1516C124.197 33.905 125.324 39.2245 129.353 41.7846C130.282 42.373 131.312 42.7751 132.337 43.1734C134.243 43.9044 136.239 44.6664 138.273 44.4526C140.001 44.2698 141.577 43.4238 143.101 42.5887C144.966 41.5672 148.568 40.4817 149.374 38.3272C150.273 35.9809 149.416 33.1649 151.748 31.3997Z" fill="#D0D2D5"/>
<path opacity="0.1" d="M132.531 32.9492C133.054 32.5618 133.553 32.1288 134.143 31.8528C134.959 31.4815 135.888 31.4422 136.732 31.7432C136.898 31.8201 137.076 31.8659 137.259 31.8784C137.492 31.8433 137.717 31.7633 137.92 31.6427C138.73 31.29 139.671 31.5458 140.478 31.9022C141.549 32.4082 142.577 32.9984 143.554 33.6674C143.164 33.7896 142.786 33.9449 142.423 34.1316C142.004 34.3472 141.606 34.6048 141.187 34.8223C140.13 35.3414 138.984 35.6557 137.81 35.7488C137.496 35.7831 137.179 35.7984 136.862 35.7945C135.57 35.7689 134.331 35.3029 133.123 34.8424L132.056 34.4404L131.524 34.2394C131.416 34.1973 131.075 34.1334 131.014 34.0402C130.888 33.8574 131.466 33.6455 131.63 33.5468C131.943 33.3622 132.239 33.1612 132.531 32.9492Z" fill="black"/>
<path opacity="0.1" d="M143.02 18.4637C143.16 18.4008 143.304 18.3459 143.45 18.2992C144.299 18.031 145.214 18.0575 146.047 18.3742C146.879 18.6909 147.58 19.2794 148.036 20.0443C147.903 20.0736 147.788 19.9603 147.686 19.8707C147.399 19.6577 147.083 19.4861 146.748 19.3609C146.527 19.2567 146.313 19.1361 146.088 19.0411C145.288 18.7304 144.409 18.6786 143.578 18.8931C142.779 19.0758 142.116 19.4779 141.385 19.8269C141.385 19.5619 141.882 19.1983 142.076 19.0393C142.363 18.8061 142.681 18.6125 143.02 18.4637Z" fill="black"/>
<path opacity="0.1" d="M145.03 21.1518C145.823 21.1773 146.675 21.0896 147.293 20.6035C146.916 20.567 146.549 20.7004 146.182 20.7863C145.509 20.9452 144.81 20.9508 144.135 20.8027C143.799 20.7278 143.47 20.62 143.128 20.5597C142.848 20.4953 142.555 20.5085 142.282 20.5981C142.37 20.8521 143.304 20.9471 143.561 20.9946C144.046 21.0832 144.537 21.1358 145.03 21.1518Z" fill="black"/>
<path opacity="0.1" d="M131.307 18.4637C131.167 18.4005 131.024 18.3456 130.877 18.2992C130.028 18.031 129.113 18.0575 128.281 18.3742C127.448 18.6909 126.747 19.2794 126.291 20.0443C126.424 20.0736 126.539 19.9603 126.643 19.8707C126.93 19.6584 127.245 19.4873 127.579 19.3627C127.8 19.2586 128.014 19.138 128.239 19.0429C129.04 18.7322 129.919 18.6804 130.751 18.8949C131.548 19.0777 132.213 19.4797 132.935 19.8287C132.935 19.5637 132.436 19.2001 132.242 19.0411C131.958 18.8076 131.643 18.6133 131.307 18.4637Z" fill="black"/>
<path opacity="0.1" d="M129.293 21.1518C128.502 21.1774 127.648 21.0897 127.033 20.6036C127.409 20.567 127.776 20.7004 128.144 20.7863C128.815 20.9452 129.514 20.9509 130.189 20.8028C130.527 20.7278 130.856 20.62 131.195 20.5597C131.476 20.4954 131.769 20.5087 132.043 20.5981C131.956 20.8521 131.02 20.9471 130.764 20.9946C130.278 21.0832 129.787 21.1357 129.293 21.1518Z" fill="black"/>
<path opacity="0.1" d="M134.664 28.4924C135.306 28.4924 135.826 28.2838 135.826 28.0264C135.826 27.769 135.306 27.5604 134.664 27.5604C134.022 27.5604 133.502 27.769 133.502 28.0264C133.502 28.2838 134.022 28.4924 134.664 28.4924Z" fill="black"/>
<path opacity="0.1" d="M139.782 28.4924C140.424 28.4924 140.944 28.2838 140.944 28.0264C140.944 27.769 140.424 27.5604 139.782 27.5604C139.14 27.5604 138.62 27.769 138.62 28.0264C138.62 28.2838 139.14 28.4924 139.782 28.4924Z" fill="black"/>
<path opacity="0.1" d="M112.553 62.0995C114.031 61.5809 115.589 61.3261 117.156 61.3466C118.687 61.3667 120.202 61.6499 121.724 61.8089C124.125 62.0611 126.545 62.0045 128.959 61.9478" fill="black"/>
<path opacity="0.1" d="M158.522 62.0995C157.043 61.5809 155.485 61.3261 153.919 61.3466C152.387 61.3667 150.872 61.6499 149.35 61.8089C146.949 62.0611 144.53 62.0045 142.118 61.9478" fill="black"/>
<path opacity="0.1" d="M131.977 70.5291C132.579 72.1737 134.605 72.8535 135.492 74.3665C135.77 74.8968 135.974 75.4633 136.096 76.0495L136.568 77.8769C136.385 76.976 136.202 76.0642 136.254 75.1468C136.305 74.2295 136.637 73.292 137.328 72.6872C137.708 72.3878 138.127 72.1418 138.574 71.9562L141.376 70.6277" fill="black"/>
<g opacity="0.1">
<path d="M60.2661 32.1817C59.3816 33.0497 59.3524 34.4312 59.113 35.6537C58.7475 37.4555 58.4643 38.4661 57.1742 39.5698C57.4099 39.8457 57.6877 40.0979 58.0403 40.118C58.3011 40.1008 58.5558 40.0318 58.7896 39.9152L60.3282 39.2866C61.8943 38.075 62.1958 37.0517 62.585 35.111C62.828 33.8958 62.8536 32.5143 63.7381 31.639C63.8149 31.5646 63.8967 31.4956 63.9829 31.4325C62.5941 31.3576 61.2017 31.2644 60.2661 32.1817Z" fill="black"/>
<path d="M91.4885 23.0175C92.3551 22.5601 93.252 22.1626 94.1729 21.8279C93.9317 21.086 92.3126 21.678 92.2304 20.8996C92.2325 20.6972 92.3078 20.5025 92.4424 20.3514L94.0212 18.1001C92.521 18.4838 91.0061 17.4459 90.0613 16.2179C89.1166 14.9899 88.4825 13.5188 87.3733 12.437C85.153 10.2753 81.692 10.2168 78.6019 10.2935L72.8768 10.4342C70.3056 10.4982 67.709 10.5676 65.2146 11.178C66.6052 11.0537 68.0086 11.0172 69.4048 10.9825L75.1299 10.8418C78.2273 10.765 81.6883 10.8235 83.9013 12.9853C85.0105 14.0671 85.6446 15.5436 86.5893 16.7661C87.5341 17.9886 89.049 19.032 90.5492 18.6483L88.9704 20.8996C88.8358 21.0507 88.7605 21.2454 88.7584 21.4478C88.8406 22.2263 90.4597 21.6305 90.7009 22.3761C89.78 22.7109 88.8831 23.1083 88.0165 23.5657C88.0937 23.7271 88.2131 23.8646 88.362 23.9637C88.511 24.0627 88.6839 24.1197 88.8626 24.1285C87.6103 24.7659 86.3152 25.3155 84.9867 25.7732H85.2791C87.7643 25.7549 90.0961 24.6512 92.3346 23.5712C92.1569 23.5632 91.9846 23.5076 91.8357 23.4102C91.6869 23.3128 91.5669 23.1772 91.4885 23.0175Z" fill="black"/>
<path d="M72.8968 25.6252C71.7438 25.6764 70.4957 25.8445 69.6825 26.6613C68.5751 27.7705 68.6354 29.7203 67.4476 30.7437C67.3965 30.7888 67.3428 30.8309 67.2868 30.8697C68.6208 30.9374 69.9676 31.0178 70.9196 30.1954C72.1074 29.1721 72.0471 27.2223 73.1545 26.1131C73.3624 25.9071 73.601 25.7345 73.8617 25.6014C73.5401 25.6051 73.2148 25.6106 72.8968 25.6252Z" fill="black"/>
</g>
</g>
<defs>
<clipPath id="clip0_606_1630">
<rect width="200" height="116.208" fill="white" transform="translate(3)"/>
</clipPath>
</defs>
</svg>
