<svg width="194" height="167" viewBox="0 0 194 167" fill="none" xmlns="http://www.w3.org/2000/svg">
<path d="M189 74.5C189 125.31 198.191 167 146 167C93.8091 167 0 125.31 0 74.5C0 23.6898 16.8091 8 69 8C121.191 8 189 23.6898 189 74.5Z" fill="#FFD84E"/>
<g clip-path="url(#clip0_190_2813)">
<path d="M149.941 64.5249L148.898 66.6311L153.494 68.9062L154.537 66.8L149.941 64.5249Z" fill="#CCCCCC"/>
<path d="M145.391 73.7157L144.348 75.8219L148.944 78.0971L149.986 75.9909L145.391 73.7157Z" fill="#CCCCCC"/>
<path d="M93.5874 90.4506C93.8018 90.5739 94.006 90.7139 94.1983 90.8693L115.357 84.2846L116.55 79.0351L124.708 79.8003L123.499 89.2988C123.401 90.0662 123.057 90.7812 122.519 91.3364C121.98 91.8916 121.276 92.2572 120.512 92.3781L95.6113 96.3205C95.248 97.201 94.6253 97.95 93.8259 98.4679C93.0265 98.9859 92.0884 99.2482 91.1363 99.2199C90.1843 99.1917 89.2634 98.8743 88.4961 98.3099C87.7288 97.7455 87.1516 96.9609 86.8411 96.0604C86.5307 95.1599 86.5017 94.1863 86.7581 93.2689C87.0145 92.3516 87.5441 91.5341 88.2765 90.9251C89.0088 90.3161 89.9093 89.9445 90.858 89.8597C91.8067 89.775 92.7587 89.9811 93.5874 90.4506Z" fill="#FFB8B8"/>
<path d="M128.479 82.9495L128.338 80.5538V80.5514L128.3 79.8955L127.887 72.8416C128.011 71.3711 127.547 69.9114 126.597 68.7822C125.646 67.6531 124.288 66.9463 122.818 66.8168C122.395 66.7789 121.969 66.7901 121.548 66.8501C120.3 67.0267 119.147 67.6199 118.278 68.5336C117.409 69.4473 116.874 70.6279 116.759 71.8838L115.902 75.4535L114.402 81.697C114.296 82.1338 114.34 82.5937 114.527 83.0024C114.714 83.4112 115.033 83.745 115.433 83.95C115.664 84.0715 115.917 84.1459 116.177 84.1687L118.677 84.3921L121.085 84.606L123.863 84.8531L124.063 84.8698L124.576 84.9173L126.295 85.0694H126.299C126.586 85.0926 126.875 85.0545 127.146 84.9578C127.417 84.8611 127.665 84.708 127.873 84.5085C128.024 84.3612 128.151 84.1912 128.251 84.0047C128.424 83.6812 128.503 83.3156 128.479 82.9495Z" fill="#191919"/>
<path d="M151.697 53.9004C151.697 62.0345 144.176 60.8042 134.898 60.8042C125.62 60.8042 118.099 62.0345 118.099 53.9004C118.099 45.7663 121.773 31.3479 134.898 31.3479C148.475 31.3479 151.697 45.7663 151.697 53.9004Z" fill="#2F2E41"/>
<path d="M142.835 57.4797C147.25 53.065 147.25 45.9076 142.835 41.4929C138.42 37.0783 131.263 37.0783 126.848 41.4929C122.434 45.9076 122.434 53.065 126.848 57.4797C131.263 61.8943 138.42 61.8943 142.835 57.4797Z" fill="#C28B8B"/>
<path d="M150.755 65.5429C150.537 65.3333 150.306 65.138 150.063 64.9583C148.526 63.7972 146.595 63.286 144.685 63.5347L123.853 66.1704C121.945 66.4073 120.204 67.378 119 68.8767C117.795 70.3753 117.222 72.2842 117.401 74.1986C117.46 74.8641 117.527 75.5652 117.6 76.2948C117.696 77.2098 117.802 78.17 117.926 79.1634C118.13 80.8342 118.38 82.5977 118.677 84.3921C118.936 85.9369 119.231 87.5031 119.568 89.0503C119.666 89.4971 119.767 89.9423 119.872 90.3859C119.872 90.3872 119.872 90.3886 119.873 90.3898C119.873 90.391 119.874 90.3921 119.875 90.3931C119.887 90.4477 119.899 90.5024 119.913 90.5547C119.912 90.5588 119.913 90.563 119.915 90.5666C120.063 91.1845 120.217 91.7953 120.379 92.399C120.441 92.6224 120.5 92.8434 120.562 93.062C120.728 93.6562 120.904 94.2385 121.085 94.8112C122.442 99.0725 124.236 102.702 126.606 104.632C126.636 104.66 126.667 104.684 126.701 104.71L126.796 104.784L126.933 104.741L127.518 104.567L128.017 104.415L134.52 102.459L136.138 101.972L141.338 100.406H141.341L146.096 98.9751L146.676 98.7992L150.762 97.5705L150.892 96.0447L151.068 94.0198L151.173 92.803L152 83.2061L152.482 77.6067L153.005 71.5273C153.102 70.4249 152.951 69.3148 152.561 68.279C152.171 67.2431 151.554 66.3081 150.755 65.5429Z" fill="#2F2E41"/>
<path d="M162.403 111.98C162.348 111.821 162.296 111.662 162.241 111.505C159.798 104.375 156.195 98.9822 150.893 96.0447C150.89 96.0447 150.89 96.0423 150.888 96.0423L150.798 95.9924L146.178 97.5919L145.607 97.7892L145.013 97.9959L145.006 97.9983L140.68 99.4956L140.673 99.498L137.279 100.672H137.277L134.137 101.758H134.135L133.405 102.012L127.918 103.911L127.281 104.132L126.71 104.33L126.623 104.361L126.606 104.632L126.214 111.505L126.188 111.98L125.698 120.557L109.439 143.589H120.562C124.289 143.59 128.011 143.307 131.694 142.741L142.13 131.495C142.218 131.404 142.328 131.339 142.45 131.307C142.571 131.275 142.7 131.276 142.82 131.311C142.941 131.347 143.05 131.414 143.136 131.507C143.221 131.599 143.279 131.714 143.304 131.837L144.837 139.442C152.389 136.772 159.454 132.885 165.752 127.934C165.02 122.029 163.95 116.645 162.403 111.98Z" fill="#2F2E41"/>
<path d="M121.781 48.3773H126.252L128.224 42.8543L128.619 48.3773H130.756L131.906 45.1556L132.136 48.3773H148.015C148.015 46.8059 147.706 45.2498 147.104 43.7979C146.503 42.3461 145.622 41.0269 144.51 39.9157C143.399 38.8045 142.08 37.923 140.628 37.3216C139.176 36.7203 137.62 36.4107 136.049 36.4107H133.747C130.574 36.4107 127.53 37.6715 125.286 39.9157C123.042 42.1598 121.781 45.2036 121.781 48.3773Z" fill="#2F2E41"/>
<path d="M94.2794 108.27C93.5494 108.576 92.7611 108.719 91.97 108.688C91.1788 108.657 90.4041 108.453 89.7003 108.091C88.9965 107.728 88.3808 107.215 87.8966 106.589C87.4124 105.962 87.0714 105.237 86.8977 104.465L67.7739 102.299L74.1844 94.6224L91.3619 97.8561C92.6789 97.6503 94.0257 97.9347 95.147 98.6555C96.2684 99.3763 97.0864 100.483 97.446 101.767C97.8056 103.051 97.6819 104.421 97.0982 105.62C96.5146 106.818 95.5117 107.761 94.2794 108.27Z" fill="#A0616A"/>
<path d="M83.9686 94.0602L75.8856 92.6152L75.2987 92.5107C74.8296 92.4269 74.3835 92.2448 73.9898 91.9763C73.5961 91.7079 73.2636 91.3592 73.0142 90.9531C72.7649 90.5471 72.6042 90.0929 72.5429 89.6203C72.4815 89.1478 72.5208 88.6676 72.6582 88.2113L76.6272 75.0233L76.746 74.6312C77.2415 72.955 77.1533 71.1602 76.4957 69.5406C75.8382 67.9211 74.6502 66.5727 73.1264 65.7164C72.0949 65.1436 70.9452 64.8165 69.7667 64.7605C68.5882 64.7044 67.4127 64.921 66.3315 65.3933C65.2503 65.8655 64.2927 66.5809 63.533 67.4836C62.7733 68.3863 62.2321 69.4521 61.9514 70.598L56.8892 91.2582L56.7015 92.0234C56.3479 93.465 56.3093 94.9659 56.5884 96.4238C56.8675 97.8816 57.4577 99.2622 58.3187 100.471C59.1797 101.68 60.2913 102.689 61.5777 103.43C62.8642 104.171 64.2951 104.625 65.7731 104.762C65.7897 104.765 65.804 104.765 65.8207 104.767L68.8509 105.036L72.7817 105.385L77.7252 105.825L82.3383 106.236C82.9425 106.291 83.5453 106.116 84.0269 105.747C84.5085 105.378 84.8339 104.842 84.9383 104.244C84.9454 104.211 84.9502 104.178 84.9549 104.144L85.9341 96.8338L85.9436 96.7672C86.0281 96.1482 85.8696 95.5206 85.5014 95.0159C85.1332 94.5113 84.5839 94.1687 83.9686 94.0602Z" fill="#CCCCCC"/>
<path d="M71.5154 38.6683C68.2887 45.0122 65.7457 51.5554 58.6283 51.5554C55.2105 51.5554 51.9326 50.1977 49.5158 47.7809C47.099 45.3641 45.7412 42.0862 45.7412 38.6683C45.7412 31.5509 51.5115 25.8703 58.6283 25.7812C65.8616 25.6906 77.5212 26.8603 71.5154 38.6683Z" fill="#2F2E41"/>
<path d="M79.6103 121.66L79.3179 118.742L79.0993 118.754L40.6714 120.605L40.7712 123.559L40.94 128.619C46.8862 133.148 53.4893 136.743 60.5211 139.278L60.7707 137.344C60.7925 137.186 60.8681 137.041 60.9848 136.932C61.1014 136.824 61.2518 136.759 61.4107 136.749C61.5695 136.739 61.7269 136.784 61.8563 136.877C61.9857 136.97 62.079 137.104 62.1206 137.258L62.8787 140.084C69.0042 142.059 75.3652 143.211 81.7944 143.509L79.6103 121.66Z" fill="#2F2E41"/>
<path d="M67.256 48.4954C71.6706 44.0808 71.6706 36.9233 67.256 32.5087C62.8413 28.0941 55.6838 28.0941 51.2692 32.5087C46.8546 36.9233 46.8546 44.0808 51.2692 48.4954C55.6838 52.91 62.8413 52.91 67.256 48.4954Z" fill="#A0616A"/>
<path d="M81.8179 118.939L79.5767 111.98L79.5386 111.861L79.4246 111.505L78.7853 109.523C78.5785 108.879 78.3812 108.232 78.1982 107.583C78.0294 106.999 77.8718 106.412 77.7253 105.825C77.5162 105.007 77.326 104.186 77.1549 103.362C76.5749 100.594 76.1882 97.7881 75.9975 94.9657C75.9451 94.1838 75.9079 93.4003 75.8857 92.6152C75.7465 87.8032 76.1797 82.9916 77.1763 78.2817C78.0438 74.2089 77.5804 69.9652 75.8544 66.1755C74.1284 62.3859 71.231 59.2507 67.5889 57.2318C65.199 55.911 62.5539 55.1176 59.8316 54.9051C59.6438 54.8909 59.456 54.879 59.2659 54.8671C56.3902 54.6854 53.5104 55.1519 50.8391 56.2321C48.1678 57.3123 45.7732 58.9786 43.8321 61.1082C42.7924 62.2407 41.8894 63.4914 41.1416 64.8347C39.0669 68.5727 38.2881 72.8924 38.9266 77.1196L41.5979 95.0561L40.9896 102.607L40.2719 111.505L40.2338 111.98L39.4685 121.468C39.4322 121.91 39.5393 122.352 39.7739 122.729C40.0084 123.105 40.358 123.397 40.7709 123.559C41.0127 123.656 41.2709 123.705 41.5314 123.704C41.5695 123.704 41.6051 123.704 41.6432 123.702L79.61 121.66L79.957 121.641C80.2737 121.625 80.5823 121.536 80.8591 121.381C81.1359 121.226 81.3734 121.01 81.5533 120.749C81.7332 120.487 81.8506 120.188 81.8965 119.875C81.9423 119.561 81.9155 119.241 81.8179 118.939Z" fill="#CCCCCC"/>
<path d="M71.2582 34.1134C68.675 35.8939 65.6089 36.8414 62.4716 36.8289C63.5907 37.6049 64.8648 38.129 66.2059 38.3652C62.0347 39.26 57.7236 39.2842 53.5425 38.4364C52.6131 38.2873 51.7164 37.9793 50.8916 37.5259C50.0888 37.0386 49.4172 36.2626 49.2553 35.3375C48.9774 33.7503 50.2142 32.3083 51.4995 31.3365C53.4673 29.8712 55.7362 28.8617 58.1421 28.381C60.5479 27.9002 63.0306 27.9602 65.4104 28.5567C66.9643 28.9584 68.521 29.637 69.5304 30.885C70.5397 32.1329 70.8387 34.0568 69.877 35.3418L71.2582 34.1134Z" fill="#2F2E41"/>
<path d="M71.8365 105.918C71.1134 106.24 70.3284 106.4 69.5367 106.386C68.7451 106.373 67.9661 106.185 67.2546 105.838C66.5432 105.491 65.9165 104.991 65.4189 104.376C64.9212 103.76 64.5646 103.042 64.3742 102.274L45.208 100.523L51.4508 92.709L68.6943 95.57C70.0065 95.3357 71.3592 95.5909 72.4958 96.2872C73.6325 96.9836 74.4743 98.0727 74.8616 99.3482C75.249 100.624 75.1549 101.997 74.5974 103.208C74.0399 104.419 73.0575 105.383 71.8365 105.918Z" fill="#A0616A"/>
<path d="M61.2218 91.9355L56.8892 91.2582L52.5185 90.5737C52.0478 90.5002 51.598 90.3279 51.1986 90.0681C50.7992 89.8084 50.4593 89.4671 50.2012 89.0667C49.943 88.6662 49.7725 88.2157 49.7009 87.7447C49.6292 87.2737 49.658 86.7929 49.7854 86.3338L53.5785 72.6681C54.0375 70.9815 53.9104 69.1891 53.2178 67.5843C52.5253 65.9794 51.3084 64.6572 49.7664 63.8341C48.7247 63.2784 47.5679 62.973 46.3877 62.942C45.2074 62.9111 44.0362 63.1555 42.9669 63.6559C41.8942 64.1484 40.9506 64.8832 40.2103 65.8025C39.47 66.7218 38.9532 67.8004 38.7007 68.9534L33.9166 90.4881C33.5943 91.9408 33.5897 93.4459 33.9029 94.9005C34.2162 96.355 34.8401 97.7248 35.7317 98.916C36.6234 100.107 37.7619 101.092 39.0693 101.802C40.3767 102.512 41.8222 102.932 43.3068 103.032L59.8553 104.142C60.4604 104.183 61.0589 103.996 61.5325 103.617C62.006 103.238 62.3201 102.695 62.4125 102.096C62.4197 102.062 62.422 102.029 62.4267 101.996L63.2467 94.6663L63.2538 94.5997C63.3245 93.9792 63.1525 93.3555 62.7737 92.8589C62.395 92.3623 61.8389 92.0315 61.2218 91.9355Z" fill="#CCCCCC"/>
<path d="M134.536 80.5751L133.544 81.1162L121.325 87.783L120.334 88.3241C119.852 88.5874 119.495 89.0308 119.34 89.5571C119.186 90.0834 119.246 90.6495 119.508 91.1313L128.607 107.808C128.871 108.289 129.314 108.646 129.84 108.801C130.366 108.955 130.933 108.895 131.414 108.633L131.417 108.632L145.614 100.885L145.617 100.884C146.098 100.621 146.455 100.177 146.61 99.6509C146.764 99.1247 146.704 98.5585 146.442 98.0767L137.343 81.4004C137.08 80.9191 136.636 80.562 136.11 80.4072C135.584 80.2525 135.018 80.3129 134.536 80.5751Z" fill="#E6E6E6"/>
<path d="M134.821 81.0979L133.646 81.7388L121.793 88.2061L120.619 88.847C120.276 89.0345 120.022 89.3502 119.911 89.725C119.801 90.0997 119.844 90.5029 120.031 90.846L129.13 107.522C129.317 107.865 129.633 108.119 130.008 108.23C130.383 108.34 130.786 108.297 131.129 108.11L131.132 108.109L145.329 100.362L145.331 100.361C145.674 100.174 145.928 99.8578 146.038 99.483C146.149 99.1082 146.106 98.7051 145.919 98.362L136.82 81.6856C136.632 81.3429 136.317 81.0886 135.942 80.9784C135.567 80.8682 135.164 80.9112 134.821 81.0979Z" fill="white"/>
<path d="M135.154 85.8062C135.11 85.7261 135.036 85.6668 134.949 85.641C134.861 85.6151 134.767 85.625 134.686 85.6683L134.213 85.9274L129.391 88.5583C129.311 88.6024 129.252 88.6763 129.227 88.7638C129.201 88.8514 129.211 88.9455 129.255 89.0255C129.299 89.1056 129.372 89.1651 129.46 89.1911C129.547 89.2171 129.641 89.2075 129.721 89.1644L135.017 86.2744C135.097 86.2302 135.156 86.1563 135.182 86.0686C135.208 85.981 135.198 85.8866 135.154 85.8062Z" fill="#E6E6E6"/>
<path d="M136.958 86.146C136.937 86.1064 136.908 86.0714 136.872 86.0431C136.837 86.0147 136.797 85.9937 136.754 85.9811C136.71 85.9685 136.665 85.9646 136.62 85.9697C136.575 85.9747 136.532 85.9886 136.492 86.0106L129.949 89.5803C129.91 89.602 129.875 89.6313 129.846 89.6665C129.818 89.7017 129.797 89.7421 129.784 89.7855C129.772 89.8289 129.768 89.8743 129.773 89.9192C129.777 89.9641 129.791 90.0077 129.813 90.0473C129.834 90.0869 129.864 90.1219 129.899 90.1502C129.934 90.1785 129.975 90.1997 130.018 90.2123C130.061 90.225 130.107 90.229 130.152 90.2242C130.197 90.2193 130.24 90.2056 130.28 90.1839L130.584 90.0176L132.488 88.979H132.49L136.82 86.6142C136.86 86.5928 136.896 86.5637 136.925 86.5284C136.953 86.4932 136.975 86.4526 136.987 86.409C137 86.3655 137.004 86.3197 136.999 86.2746C136.994 86.2294 136.98 86.1857 136.958 86.146Z" fill="#E6E6E6"/>
<path d="M129.848 91.8357L127.77 88.0259C127.749 87.9877 127.713 87.9595 127.671 87.9475C127.628 87.9354 127.583 87.9406 127.545 87.9618L126.537 88.5108L126.014 88.796L123.207 90.3265L122.663 90.6236C122.625 90.6452 122.596 90.681 122.584 90.7233C122.572 90.7656 122.578 90.8109 122.599 90.8494L122.732 91.0942L124.676 94.6591C124.697 94.6972 124.732 94.7253 124.774 94.7373C124.816 94.7494 124.861 94.7443 124.899 94.7233L128.25 92.8957L128.773 92.6105L129.781 92.0615C129.8 92.0511 129.817 92.037 129.831 92.02C129.845 92.003 129.855 91.9835 129.861 91.9625C129.868 91.9415 129.869 91.9195 129.867 91.8977C129.865 91.8759 129.858 91.8549 129.848 91.8357Z" fill="#E6E6E6"/>
<path d="M137.781 90.6402C137.737 90.5603 137.664 90.5009 137.576 90.475C137.489 90.4492 137.395 90.459 137.315 90.5024L130.133 94.4215C130.069 94.4562 130.018 94.51 129.987 94.5753C129.956 94.6405 129.946 94.7139 129.959 94.7851C129.964 94.8219 129.976 94.8574 129.995 94.8897C130.013 94.9225 130.036 94.9522 130.064 94.9776L130.066 94.98C130.119 95.0278 130.186 95.058 130.257 95.0665C130.328 95.075 130.4 95.0614 130.463 95.0275L137.645 91.1084C137.685 91.0867 137.72 91.0572 137.748 91.0219C137.777 90.9866 137.798 90.946 137.81 90.9025C137.823 90.859 137.827 90.8134 137.822 90.7684C137.817 90.7234 137.803 90.6799 137.781 90.6402Z" fill="#E6E6E6"/>
<path d="M139.587 90.9801C139.565 90.9405 139.536 90.9055 139.5 90.8772C139.465 90.849 139.424 90.8279 139.381 90.8154C139.338 90.8028 139.292 90.7989 139.247 90.8039C139.202 90.8089 139.158 90.8228 139.119 90.8447L130.689 95.4434C130.626 95.4769 130.574 95.5298 130.543 95.5944C130.512 95.659 130.502 95.7318 130.515 95.8023V95.8047C130.52 95.8415 130.533 95.877 130.551 95.9093C130.569 95.9433 130.594 95.9738 130.622 95.9996C130.675 96.0484 130.742 96.0793 130.813 96.0879C130.884 96.0964 130.957 96.0821 131.019 96.0471L139.449 91.4483C139.529 91.4043 139.589 91.3304 139.615 91.2427C139.641 91.1549 139.631 91.0605 139.587 90.9801Z" fill="#E6E6E6"/>
<path d="M127.727 98.2362C128.534 98.2362 129.189 97.5818 129.189 96.7745C129.189 95.9672 128.534 95.3127 127.727 95.3127C126.92 95.3127 126.265 95.9672 126.265 96.7745C126.265 97.5818 126.92 98.2362 127.727 98.2362Z" fill="#E6E6E6"/>
<path d="M138.814 74.1582L137.822 74.6993L125.603 81.3661L124.611 81.9072C124.13 82.1705 123.773 82.6139 123.618 83.1402C123.464 83.6664 123.524 84.2326 123.786 84.7144L132.885 101.391C133.148 101.872 133.592 102.229 134.118 102.384C134.644 102.539 135.21 102.478 135.692 102.216L135.695 102.215L149.892 94.4684L149.895 94.467C150.376 94.2037 150.733 93.7603 150.888 93.234C151.042 92.7077 150.982 92.1416 150.72 91.6598L141.621 74.9834C141.358 74.5022 140.914 74.145 140.388 73.9903C139.862 73.8356 139.295 73.896 138.814 74.1582Z" fill="#CCCCCC"/>
<path d="M139.099 74.681L137.925 75.3219L126.072 81.7891L124.897 82.4301C124.554 82.6175 124.3 82.9333 124.19 83.3081C124.08 83.6828 124.123 84.086 124.309 84.4291L133.408 101.105C133.596 101.448 133.912 101.703 134.286 101.813C134.661 101.923 135.064 101.88 135.407 101.693L135.41 101.692L149.607 93.9455L149.61 93.9441C149.952 93.7566 150.207 93.4409 150.317 93.0661C150.427 92.6913 150.384 92.2882 150.197 91.945L141.098 75.2687C140.911 74.926 140.595 74.6717 140.22 74.5615C139.845 74.4513 139.442 74.4943 139.099 74.681Z" fill="white"/>
<path d="M139.432 79.3892C139.388 79.3092 139.314 79.2498 139.226 79.224C139.139 79.1982 139.044 79.208 138.964 79.2514L136.526 80.5823L135.846 80.9531L133.669 82.1414C133.589 82.1855 133.53 82.2594 133.505 82.3469C133.479 82.4345 133.489 82.5285 133.533 82.6086C133.576 82.6887 133.65 82.7482 133.737 82.7742C133.825 82.8002 133.919 82.7906 133.999 82.7474L136.566 81.3476L137.103 81.0529L139.294 79.8574C139.374 79.8133 139.434 79.7394 139.46 79.6517C139.485 79.564 139.476 79.4697 139.432 79.3892Z" fill="#CCCCCC"/>
<path d="M141.236 79.7291C141.215 79.6894 141.186 79.6544 141.151 79.6261C141.116 79.5978 141.075 79.5767 141.032 79.5641C140.989 79.5515 140.943 79.5477 140.898 79.5527C140.853 79.5578 140.81 79.5717 140.771 79.5936L137.37 81.4498L136.847 81.735L134.228 83.1633C134.188 83.185 134.153 83.2143 134.125 83.2495C134.096 83.2847 134.075 83.3252 134.063 83.3686C134.05 83.4119 134.046 83.4574 134.051 83.5023C134.056 83.5472 134.069 83.5907 134.091 83.6304C134.113 83.67 134.142 83.705 134.177 83.7333C134.212 83.7616 134.253 83.7827 134.296 83.7954C134.34 83.8081 134.385 83.8121 134.43 83.8072C134.475 83.8024 134.518 83.7887 134.558 83.767L137.177 82.3386L137.7 82.0535L141.099 80.1973C141.139 80.1759 141.174 80.1467 141.203 80.1115C141.232 80.0763 141.253 80.0357 141.266 79.9921C141.279 79.9485 141.283 79.9028 141.278 79.8577C141.273 79.8125 141.259 79.7688 141.236 79.7291Z" fill="#CCCCCC"/>
<path d="M134.125 85.4188L132.469 82.3814L132.184 81.8586L132.048 81.609C132.027 81.5707 131.991 81.5425 131.948 81.5305C131.906 81.5185 131.861 81.5237 131.822 81.5448L128.46 83.3796L126.941 84.2067C126.903 84.2283 126.874 84.2641 126.862 84.3064C126.85 84.3487 126.855 84.394 126.877 84.4325L127.012 84.6796L127.159 84.953L127.297 85.2025V85.2049L128.954 88.2422C128.975 88.2803 129.01 88.3084 129.052 88.3204C129.094 88.3325 129.139 88.3274 129.177 88.3064L134.059 85.6446C134.078 85.6342 134.095 85.6201 134.109 85.6031C134.123 85.5861 134.133 85.5666 134.139 85.5456C134.145 85.5246 134.147 85.5025 134.145 85.4808C134.143 85.459 134.136 85.4379 134.125 85.4188Z" fill="#191919"/>
<path d="M142.058 84.2233C142.015 84.1434 141.941 84.084 141.854 84.0581C141.767 84.0323 141.673 84.0421 141.593 84.0855L139.446 85.2571L138.924 85.5423L136.851 86.6712L134.41 88.0045C134.371 88.0262 134.335 88.0556 134.307 88.0908C134.279 88.1261 134.257 88.1666 134.245 88.2101C134.232 88.2536 134.228 88.2992 134.232 88.3442C134.237 88.3893 134.251 88.433 134.273 88.4728C134.294 88.5125 134.324 88.5477 134.359 88.5762C134.394 88.6046 134.435 88.6258 134.478 88.6386C134.522 88.6514 134.567 88.6556 134.612 88.6507C134.657 88.6459 134.701 88.6323 134.741 88.6106L139.254 86.1484L139.777 85.8632L141.923 84.6915C141.963 84.6697 141.998 84.6403 142.026 84.605C142.054 84.5696 142.075 84.529 142.088 84.4855C142.101 84.442 142.104 84.3965 142.099 84.3515C142.094 84.3065 142.08 84.2629 142.058 84.2233Z" fill="#CCCCCC"/>
<path d="M143.865 84.5632C143.843 84.5235 143.814 84.4886 143.778 84.4603C143.743 84.432 143.702 84.411 143.659 84.3984C143.616 84.3859 143.57 84.382 143.525 84.387C143.48 84.392 143.436 84.4059 143.397 84.4277L140.005 86.2791L139.483 86.5643L134.967 89.0265C134.927 89.0481 134.892 89.0773 134.863 89.1125C134.835 89.1477 134.814 89.1882 134.801 89.2317C134.788 89.2751 134.784 89.3207 134.789 89.3658C134.793 89.4108 134.807 89.4545 134.829 89.4942C134.851 89.534 134.88 89.5691 134.915 89.5974C134.951 89.6258 134.991 89.6469 135.035 89.6595C135.078 89.6722 135.124 89.6761 135.169 89.671C135.214 89.666 135.258 89.6521 135.297 89.6302L139.81 87.168L140.333 86.8828L143.727 85.0314C143.807 84.9874 143.867 84.9134 143.893 84.8257C143.919 84.738 143.909 84.6436 143.865 84.5632Z" fill="#CCCCCC"/>
<path d="M132.005 91.8193C132.812 91.8193 133.467 91.1649 133.467 90.3576C133.467 89.5503 132.812 88.8958 132.005 88.8958C131.198 88.8958 130.543 89.5503 130.543 90.3576C130.543 91.1649 131.198 91.8193 132.005 91.8193Z" fill="#CCCCCC"/>
<path d="M132.987 98.5755C133.233 98.5997 133.477 98.6433 133.716 98.7059L150.293 84.0001L149.221 78.7245L156.971 76.0661L159.777 85.2212C160.003 85.9608 159.984 86.754 159.721 87.4816C159.459 88.2092 158.967 88.8321 158.321 89.2566L137.246 103.093C137.277 104.045 137.018 104.984 136.502 105.785C135.987 106.586 135.239 107.211 134.36 107.577C133.481 107.943 132.511 108.032 131.579 107.833C130.648 107.635 129.799 107.157 129.145 106.464C128.492 105.771 128.065 104.895 127.921 103.954C127.778 103.012 127.924 102.049 128.341 101.193C128.758 100.336 129.426 99.6273 130.256 99.1597C131.086 98.6922 132.038 98.4884 132.987 98.5755Z" fill="#C28B8B"/>
<path d="M161.704 76.4327L157.007 67.4632C156.524 66.0991 155.53 64.9761 154.234 64.3313C152.938 63.6865 151.443 63.5705 150.063 64.0076C150.011 64.0219 149.961 64.0385 149.909 64.0575C148.51 64.5463 147.363 65.5697 146.719 66.9034C146.075 68.237 145.986 69.7717 146.472 71.1708L148.357 81.0838C148.41 81.3675 148.525 81.6363 148.692 81.8717C148.86 82.1072 149.076 82.3037 149.326 82.448C149.6 82.608 149.908 82.6993 150.225 82.7141C150.485 82.7306 150.746 82.6943 150.992 82.6072L152 82.2555L158.469 80.0024L160.584 79.2656C160.857 79.1702 161.106 79.0172 161.315 78.8169C161.523 78.6167 161.686 78.374 161.792 78.1052C161.898 77.8364 161.945 77.5479 161.93 77.2593C161.915 76.9707 161.838 76.6888 161.704 76.4327Z" fill="#191919"/>
<path d="M179.432 111.98H24.2377C24.1746 111.98 24.1142 111.955 24.0696 111.91C24.025 111.866 24 111.805 24 111.742C24 111.679 24.025 111.619 24.0696 111.574C24.1142 111.53 24.1746 111.505 24.2377 111.505H179.432C179.495 111.505 179.556 111.53 179.6 111.574C179.645 111.619 179.67 111.679 179.67 111.742C179.67 111.805 179.645 111.866 179.6 111.91C179.556 111.955 179.495 111.98 179.432 111.98Z" fill="#3F3D56"/>
<path d="M50.9741 107.583V107.702C50.9749 108.508 51.2096 109.296 51.6496 109.971C52.0896 110.646 52.7161 111.179 53.453 111.505C53.9816 111.741 54.5543 111.863 55.1332 111.861H93.516V107.583H50.9741Z" fill="#3F3D56"/>
<path d="M120.315 79.3892C119.706 78.1319 118.768 77.0627 117.601 76.2949C117.072 75.9446 116.501 75.6619 115.901 75.4535C115.085 75.1683 114.226 75.0229 113.361 75.0233H76.5229C74.4751 75.0257 72.5118 75.8403 71.0638 77.2883C69.6157 78.7363 68.8012 80.6996 68.7988 82.7474V104.137C68.7982 104.437 68.8157 104.737 68.8512 105.036C68.9034 105.481 68.994 105.922 69.122 106.352C69.249 106.776 69.4129 107.188 69.6116 107.583C70.2514 108.869 71.2373 109.95 72.4583 110.706C73.6793 111.462 75.087 111.862 76.5229 111.861H113.361C114.375 111.862 115.38 111.662 116.317 111.274C117.254 110.886 118.106 110.317 118.823 109.6C119.541 108.882 120.11 108.031 120.498 107.094C120.886 106.156 121.085 105.152 121.085 104.137V82.7474C121.087 81.5841 120.823 80.4356 120.315 79.3892Z" fill="#3F3D56"/>
<path d="M96.9619 95.3436C98.0119 95.3436 98.8632 94.4924 98.8632 93.4423C98.8632 92.3922 98.0119 91.541 96.9619 91.541C95.9118 91.541 95.0605 92.3922 95.0605 93.4423C95.0605 94.4924 95.9118 95.3436 96.9619 95.3436Z" fill="white"/>
</g>
<defs>
<clipPath id="clip0_190_2813">
<rect width="170" height="143.589" fill="white" transform="translate(24)"/>
</clipPath>
</defs>
</svg>
