<svg width="200" height="149" viewBox="0 0 200 149" fill="none" xmlns="http://www.w3.org/2000/svg">
<path d="M182 66C182 116.81 194.691 132.5 142.5 132.5C90.3091 132.5 27.9998 162.31 27.9998 111.5C27.9998 60.6898 -5.69156 16 46.4994 16C98.6903 16 182 15.1898 182 66Z" fill="#FFD84E"/>
<path d="M86.0044 54.3177C87.3306 37.3506 94.1113 29.2666 89.7695 24.197C85.6106 19.341 73.8957 20.3441 66.3722 25.0038C46.0795 37.5722 38.6451 87.6647 64.7586 112.139C89.5731 135.395 136.601 127.947 147.053 108.911C149.491 104.47 151.428 96.684 147.859 91.9686C138.999 80.2617 106.782 101.466 92.4589 88.2035C83.9702 80.3437 85.2766 63.6293 86.0044 54.3177Z" fill="#515151"/>
<path d="M101.516 45.8883C101.023 46.1151 100.638 46.5252 100.443 47.0314C100.248 47.5376 100.258 48.1 100.471 48.5989C100.516 48.6996 100.57 48.7964 100.63 48.8884L96.2749 54.7041L98.4483 57.9524L103.554 49.3406C103.915 49.0585 104.173 48.6646 104.288 48.2204C104.402 47.7762 104.366 47.3066 104.186 46.885C104.08 46.6461 103.929 46.4302 103.741 46.2496C103.552 46.0691 103.33 45.9274 103.087 45.8328C102.844 45.7381 102.584 45.6923 102.323 45.698C102.062 45.7036 101.805 45.7606 101.566 45.8657C101.549 45.873 101.533 45.8806 101.516 45.8883Z" fill="#FFB6B6"/>
<path d="M101.513 55.9155C101.798 56.1683 101.007 56.4802 100.171 55.9881C99.9315 55.8456 99.8293 55.7864 99.8025 55.824C99.7352 55.9182 100.128 56.612 100.023 58.153C99.9584 59.0728 98.4309 60.802 96.6963 62.4882C94.3511 64.7688 91.6242 66.9687 91.6242 66.9687L90.6667 66.2022L80.6274 58.153L78.9331 55.8079C79.0882 54.8818 79.3213 53.9705 79.6297 53.0836C80.0545 51.856 80.5594 50.6575 81.1411 49.496C81.453 48.864 81.7731 48.2616 82.0797 47.7076L87.4583 53.6349L91.9657 58.5995C91.9657 58.5995 93.2781 56.4856 94.2947 55.9101C94.4243 55.8273 94.5718 55.7766 94.725 55.7622C95.7523 55.7138 95.8142 55.1544 94.6228 53.9361C93.4314 52.7178 94.9347 53.8554 95.9943 53.5273C97.0539 53.1992 95.9943 53.5273 96.2176 52.7071C96.4408 51.8868 99.4125 50.2409 99.4125 50.2409L99.5362 50.3512L101.782 52.3333L102.425 52.9007C102.425 52.9007 101.723 54.8263 101.529 55.2324C101.335 55.6385 101.231 55.66 101.513 55.9155Z" fill="#191919"/>
<path d="M160.71 93.2747L160.819 90.3083L149.43 88.4745L149.268 92.8524L160.71 93.2747Z" fill="#FFB6B6"/>
<path d="M158.642 94.1678L158.534 89.4182L160.565 89.4931L163.843 85.1023C164.005 84.8854 164.232 84.7259 164.49 84.6472C164.749 84.5684 165.027 84.5745 165.282 84.6645C165.537 84.7545 165.757 84.9237 165.909 85.1475C166.061 85.3712 166.138 85.6378 166.128 85.9083L165.92 91.5504L163.876 92.4488L165.87 92.9027L165.791 95.03L158.642 94.1678Z" fill="#2F2E41"/>
<path d="M96.6069 94.4296L132.683 95.3443C132.683 95.3443 148.261 96.2441 151.917 93.8664L155.771 93.3798L155.98 87.718C155.98 87.718 153.623 87.7353 152.268 87.1039C150.913 86.4726 151.854 85.6999 150.562 86.4596C149.27 87.2193 149.407 87.3107 148.408 86.9615C147.409 86.6124 101.6 79.6301 101.6 79.6301L96.6069 94.4296Z" fill="#2F2E41"/>
<path d="M144.145 91.9727L146.243 89.8726L139.141 80.7816L136.044 83.8814L144.145 91.9727Z" fill="#FFB6B6"/>
<path d="M142.022 90.1456L145.173 86.5903L146.611 88.0262L152 87.0367C152.266 86.9878 152.541 87.0253 152.784 87.1437C153.028 87.262 153.227 87.4551 153.353 87.6946C153.479 87.9342 153.525 88.2078 153.484 88.4753C153.444 88.7429 153.319 88.9905 153.127 89.182L149.137 93.1766L147.028 92.4448L148.181 94.134L146.677 95.6401L142.022 90.1456Z" fill="#2F2E41"/>
<path d="M82.374 74.6722L82.7327 83.0091C83.1549 92.8234 93.9632 98.7634 102.344 93.6392C102.499 93.5447 102.654 93.4469 102.809 93.3457C102.809 93.3457 105.986 92.4924 105.89 91.1412C105.794 89.7899 106.57 89.1322 107.257 89.5007C107.944 89.8692 116.937 77.1054 116.937 77.1054C116.937 77.1054 135.623 86.4264 139.746 88.6206C139.746 88.6206 143.621 82.5606 143.34 82.6242C143.059 82.6877 120.223 66.7046 120.223 66.7046C120.223 66.7046 116.503 62.9395 111.888 65.4255C111.792 65.7906 111.874 65.8034 111.874 65.8034L96.6301 78.2251L94.4761 74.1344L82.374 74.6722Z" fill="#2F2E41"/>
<path d="M96.7471 64.2498C96.7182 64.6349 96.6633 65.0177 96.583 65.3955C96.4732 65.9423 96.2962 66.4735 96.0559 66.9768C96.0559 66.9768 96.0559 67.5389 94.9802 69.4214C93.9045 71.304 95.2491 70.4972 96.0559 71.8957C96.8628 73.2914 96.0559 72.6487 95.1604 73.5469C94.9025 73.8083 94.7194 74.134 94.63 74.4901C94.5407 74.8462 94.5483 75.2198 94.6521 75.572C94.6521 75.572 83.0986 75.58 80.9472 74.7732C78.7957 73.9664 78.3062 69.4214 80.2345 68.9723C82.1601 68.5232 79.6509 68.0768 78.5187 67.0414C77.3865 66.006 79.6509 64.3117 79.6509 64.3117C79.6509 64.3117 78.7177 62.7008 78.7957 57.2925C78.8067 56.795 78.8525 56.299 78.9328 55.808C79.088 54.8819 79.321 53.9705 79.6294 53.0836C80.0542 51.856 80.5591 50.6576 81.1408 49.4961C81.4527 48.8641 81.7728 48.2616 82.0794 47.7076C82.1278 47.6216 82.1735 47.5382 82.2219 47.4548C82.8055 46.4221 83.338 45.5777 83.6903 45.0371C83.9619 44.6176 84.126 44.3809 84.126 44.3809L86.0838 40.9762L92.6189 44.0394L92.2478 49.0496L93.3746 52.8281L93.8937 54.5682L94.2944 55.9101L94.9129 57.989C94.9129 57.989 94.7435 57.9971 94.9452 58.2741C95.8741 59.5091 96.4763 60.9586 96.696 62.4883C96.7734 63.0721 96.7906 63.6624 96.7471 64.2498Z" fill="#191919"/>
<path d="M115.62 64.7898L115.498 64.7501L99.856 59.7132L105.62 40.804C105.735 40.4274 105.933 40.0819 106.201 39.7933C106.469 39.5047 106.799 39.2807 107.165 39.1381C107.532 38.9955 107.927 38.9381 108.319 38.9701C108.712 39.0021 109.092 39.1228 109.43 39.3231L119.426 45.2286C120.217 45.6955 120.819 46.4257 121.127 47.2914C121.434 48.1572 121.428 49.1034 121.108 49.9649L115.62 64.7898Z" fill="#2F2E41"/>
<path d="M115.683 65.9918L99.916 60.9144L105.68 42.0052C105.795 41.6286 105.993 41.283 106.261 40.9945C106.529 40.7059 106.859 40.4819 107.226 40.3393C107.592 40.1967 107.987 40.1392 108.379 40.1713C108.772 40.2033 109.152 40.324 109.491 40.5242L119.963 45.753C121.537 46.6823 121.5 49.0876 120.769 51.0612L115.683 65.9918Z" fill="#191919"/>
<path d="M114.105 67.3605C113.742 67.5653 113.34 67.6924 112.925 67.7337C112.511 67.7749 112.092 67.7295 111.695 67.6001L101.617 64.3546C100.844 64.102 100.2 63.5571 99.8234 62.8362C99.4465 62.1153 99.3665 61.2756 99.6003 60.4965L104.653 43.9202C104.754 43.589 104.92 43.2813 105.142 43.0152C105.363 42.749 105.635 42.5298 105.943 42.3703C106.25 42.2108 106.586 42.1143 106.931 42.0863C107.276 42.0584 107.623 42.0997 107.952 42.2077L118.396 45.637C118.894 45.8003 119.354 46.0618 119.749 46.4058C120.144 46.7499 120.465 47.1696 120.695 47.6402C120.925 48.1108 121.059 48.6227 121.088 49.1456C121.116 49.6686 121.04 50.192 120.863 50.685L115.461 65.7464C115.218 66.4302 114.737 67.0034 114.105 67.3605Z" fill="#3F3D56"/>
<path d="M92.2497 41.0343C96.2363 41.0343 99.4682 37.8025 99.4682 33.8159C99.4682 29.8292 96.2363 26.5974 92.2497 26.5974C88.2631 26.5974 85.0312 29.8292 85.0312 33.8159C85.0312 37.8025 88.2631 41.0343 92.2497 41.0343Z" fill="#FFB6B6"/>
<path d="M67.8402 41.1431C68.5027 42.4271 69.5888 43.4425 70.9145 44.017C71.4435 44.258 71.9998 44.434 72.5712 44.5413C72.7327 43.9008 72.9912 43.2888 73.3378 42.7265C73.2224 43.3603 73.2224 44.0097 73.3378 44.6435C74.2083 44.7147 75.0841 44.606 75.9108 44.3241C76.7226 44.048 77.459 43.5865 78.0614 42.9762C78.6638 42.3659 79.1157 41.6236 79.3812 40.8083C79.9562 38.8949 79.3369 36.8512 79.2881 34.854C79.2378 32.8566 80.1863 30.4676 82.1691 30.2205C83.6792 30.032 83.4925 30.1783 84.5775 31.2451C83.0597 32.9311 86.7598 40.3985 88.7452 40.0686C89.8678 39.882 90.6938 38.9908 90.9158 39.0217C92.0526 41.8058 88.6329 45.7544 91.3452 47.0506L91.144 46.7843C89.7243 44.4389 93.9251 40.4777 92.5054 38.1323C92.1096 37.4762 91.6981 36.707 91.943 35.9812C92.1754 35.2911 93.3524 35.0727 93.6007 35.7008C93.1971 34.2612 94.324 32.5715 95.8208 32.4246C97.1505 32.2934 97.0738 32.6724 98.3416 33.0182C98.5036 32.4721 98.737 31.9497 99.0359 31.4647C98.9347 32.018 98.9223 32.5839 98.9989 33.1412C99.4562 33.1958 99.9187 33.0979 100.315 32.8627C101.485 32.1608 101.52 30.3491 100.716 29.2465C99.9103 28.1436 98.5607 27.5991 97.2586 27.187C97.2466 24.4335 89.8373 23.1152 88.4746 25.6753C88.3345 23.6025 85.9583 22.2061 83.9114 22.5582C81.8645 22.9104 80.2497 24.5517 79.2652 26.3811C78.2809 28.209 77.7922 30.2558 77.0716 32.2029C76.351 34.15 75.3209 36.0915 73.5953 37.2467C71.87 38.4005 69.3059 38.5053 67.8654 37.0099C67.5368 37.6484 67.3633 38.3554 67.359 39.0735C67.3546 39.7915 67.5195 40.5006 67.8402 41.1431Z" fill="#252525"/>
<path d="M75.2471 74.1526C75.3964 74.0332 75.5585 73.9306 75.7303 73.8466C78.4932 72.4715 87.0853 68.9021 93.8036 69.0486C106.73 69.3304 123.181 83.5965 119.352 93.1767C116.439 100.466 101.956 104.614 91.3832 101.297C76.572 96.6498 70.7258 77.7575 75.2471 74.1526Z" fill="#515151"/>
<path d="M110.209 56.2352C109.667 56.255 109.154 56.4856 108.779 56.8779C108.405 57.2701 108.198 57.7932 108.203 58.3357C108.206 58.4459 108.217 58.5558 108.238 58.6641L101.981 62.358L102.739 66.1923L110.763 60.2054C111.205 60.0841 111.595 59.8198 111.871 59.4537C112.148 59.0875 112.295 58.6402 112.29 58.1816C112.285 57.9206 112.229 57.6632 112.124 57.4241C112.019 57.1849 111.869 56.9687 111.681 56.7878C111.492 56.6069 111.271 56.4649 111.027 56.3697C110.784 56.2746 110.525 56.2283 110.264 56.2334C110.246 56.2338 110.228 56.2344 110.209 56.2352Z" fill="#FFB6B6"/>
<path d="M105.084 65.0414C104.916 64.8172 104.844 64.7233 104.806 64.7491C104.708 64.8082 104.803 65.6004 104.114 66.9811C103.143 68.9208 92.9719 71.8917 92.9719 71.8917L91.7196 69.599L86.2112 59.5236L84.3125 51.4478C84.2461 51.1663 84.2139 50.8777 84.2165 50.5884C85.9093 49.3971 87.707 48.3623 89.5874 47.4968C90.3388 47.923 90.9116 48.6055 91.2011 49.4194L94.9929 60.0511L96.506 64.2959C96.506 64.2959 99.175 62.3874 100.143 62.7377C101.11 63.0902 101.384 62.596 100.753 61.0137C100.121 59.4314 101.069 61.0601 102.173 61.1636C103.279 61.2687 102.173 61.1636 102.695 60.4922C103.217 59.8208 106.595 59.443 106.595 59.443L106.666 59.5928L107.975 62.2849L108.35 63.0583C108.35 63.0583 106.962 64.5636 106.627 64.8636C106.291 65.1658 106.187 65.1449 106.352 65.4892C106.514 65.8319 105.665 65.8163 105.084 65.0414Z" fill="#191919"/>
</svg>
