<svg width="200" height="131" viewBox="0 0 200 131" fill="none" xmlns="http://www.w3.org/2000/svg">
<g clip-path="url(#clip0_31_1093)">
<path d="M123.219 93.0541C124.503 93.0541 125.544 92.0129 125.544 90.7286C125.544 89.4443 124.503 88.4031 123.219 88.4031C121.935 88.4031 120.894 89.4443 120.894 90.7286C120.894 92.0129 121.935 93.0541 123.219 93.0541Z" fill="#3F3D56"/>
<path d="M140.789 113.208C142.073 113.208 143.115 112.167 143.115 110.883C143.115 109.598 142.073 108.557 140.789 108.557C139.505 108.557 138.464 109.598 138.464 110.883C138.464 112.167 139.505 113.208 140.789 113.208Z" fill="#3F3D56"/>
<path d="M116.889 81.2975L137.043 107.394C137.043 107.394 141.177 115.146 147.636 112.82C154.096 110.495 144.277 103.519 144.277 103.519L124.64 77.4218C124.64 77.4218 122.056 70.4088 116.889 71.8482C111.721 73.2876 116.889 81.2975 116.889 81.2975Z" fill="#191919"/>
<path d="M150.956 99.6327L147.551 101.435L138.979 89.1589L144.004 86.4991L150.956 99.6327Z" fill="#A0616A"/>
<path d="M139.249 105.731C139.238 105.965 139.487 106.571 139.597 106.779C139.935 107.417 140.726 107.661 141.364 107.323L151.909 101.741C152.344 101.51 152.51 100.971 152.28 100.535L152.048 100.096C152.048 100.096 151.871 98.5007 149.936 97.4429C149.936 97.4429 149.275 99.4229 146.225 98.4842L145.073 97.7301L142.464 103.097L140.258 104.637C139.775 104.974 139.278 105.143 139.249 105.731Z" fill="#2F2E41"/>
<path d="M134.161 77.67L130.756 79.4721L122.184 67.1963L127.209 64.5364L134.161 77.67Z" fill="#A0616A"/>
<path d="M122.454 83.7681C122.443 84.0027 122.692 84.6086 122.802 84.8163C123.14 85.4545 123.931 85.698 124.569 85.3602L135.114 79.7782C135.549 79.5478 135.715 79.008 135.485 78.5725L135.253 78.1335C135.253 78.1335 135.076 76.538 133.141 75.4802C133.141 75.4802 132.48 77.4602 129.43 76.5215L128.278 75.7674L125.669 81.1348L123.463 82.6745C122.98 83.0113 122.483 83.1802 122.454 83.7681Z" fill="#2F2E41"/>
<path d="M146.344 51.5833L133.684 71.9957L146.861 90.5994L141.693 93.1833C141.693 93.1833 124.899 75.3547 124.382 73.0293C123.865 70.7038 129.549 54.4256 129.549 54.4256H118.757L129.033 67.3448L124.123 70.4454L106.553 53.392C106.553 53.392 104.486 49.9578 106.553 48.7035C108.62 47.4492 127.156 39.1809 127.156 39.1809L146.344 51.5833Z" fill="#2F2E41"/>
<path d="M117.276 87.8864C118.56 87.8864 119.602 86.8452 119.602 85.5609C119.602 84.2766 118.56 83.2354 117.276 83.2354C115.992 83.2354 114.951 84.2766 114.951 85.5609C114.951 86.8452 115.992 87.8864 117.276 87.8864Z" fill="#3F3D56"/>
<path d="M134.717 110.237C136.001 110.237 137.043 109.195 137.043 107.911C137.043 106.627 136.001 105.586 134.717 105.586C133.433 105.586 132.392 106.627 132.392 107.911C132.392 109.195 133.433 110.237 134.717 110.237Z" fill="#3F3D56"/>
<path d="M115.467 20.9647L119.343 13.73C119.343 13.73 131.215 16.0554 134.968 20.9647C138.722 25.8741 145.44 38.7933 145.44 38.7933C145.44 38.7933 150.608 49.1287 145.957 54.8131C141.306 60.4976 135.363 49.1287 135.363 49.1287L126.836 39.5684L125.803 39.3101L115.467 20.9647Z" fill="#191919"/>
<path d="M109.571 51.3475C109.902 50.5457 110.419 49.8347 111.081 49.274L116.678 34.2948L121.008 35.963L114.626 50.7917C114.676 51.6572 114.519 52.5222 114.167 53.3144C113.313 55.3094 111.592 56.4854 110.323 55.9421C109.054 55.3987 108.717 53.3416 109.571 51.3475Z" fill="#A0616A"/>
<path d="M118.439 21.3523L128.645 24.5821L120.248 39.1809L113.788 38.6641L118.439 21.3523Z" fill="#191919"/>
<path d="M94.5911 33.3833C95.4049 33.0838 96.2787 32.9835 97.1392 33.0909L111.953 27.0704L113.657 31.3873L98.4217 36.7274C97.819 37.3506 97.0759 37.8204 96.2544 38.0975C94.2078 38.8192 92.1773 38.3488 91.7181 37.0468C91.2589 35.7448 92.5451 34.1045 94.5911 33.3833Z" fill="#A0616A"/>
<path d="M119.085 18.1225L126.588 26.5352L110.773 33.0055L106.781 27.9012L119.085 18.1225Z" fill="#191919"/>
<path d="M58.3664 73.2556C58.3748 73.257 58.3874 73.2591 58.4026 73.2617C58.7008 73.311 60.5039 73.5892 62.3217 72.8967C63.0918 72.6034 62.8291 72.5303 64.5442 71.5104C66.555 70.3147 67.071 70.3231 67.2208 69.7655C67.5198 68.6522 65.9232 66.9021 64.8665 67.0173C64.5882 67.0477 64.2903 67.2135 63.8268 67.1011C63.725 67.0764 63.2793 66.9682 63.062 66.5993C62.8682 66.2701 63.0324 66.0327 62.9544 65.7628C62.7498 65.0543 61.0441 64.7007 59.5487 64.9505C58.6886 65.0942 58.0196 65.4865 56.7168 66.2652C54.4491 67.6206 53.3153 68.2983 53.0605 69.3366C52.8189 70.3207 53.3986 70.7447 52.977 71.7982C52.5844 72.7791 51.9609 72.7136 51.7464 73.5071C51.4011 74.784 52.6826 76.1854 53.2164 76.7692C53.8017 77.4093 54.3615 77.7605 55.1046 78.2269C56.0373 78.8123 56.5037 79.1049 57.0644 79.0751C58.081 79.0212 61.1018 79.2049 61.1412 78.3637C61.156 78.0484 64.8197 78.3065 63.0157 74.9123C62.7944 74.4959 58.4596 74.9406 58.4024 74.7015" fill="#2F2E41"/>
<path d="M59.1911 76.9932C62.3542 76.9932 64.9184 74.4291 64.9184 71.266C64.9184 68.1029 62.3542 65.5388 59.1911 65.5388C56.0281 65.5388 53.4639 68.1029 53.4639 71.266C53.4639 74.4291 56.0281 76.9932 59.1911 76.9932Z" fill="#FFB6B6"/>
<path d="M39.0857 117.347C39.0857 117.347 31.0491 114.784 30.6997 116.065C30.3503 117.347 36.4068 119.443 41.1821 119.443C45.9575 119.443 76.0071 119.21 76.0071 119.21C76.0071 119.21 84.393 116.531 81.9471 116.065C79.5012 115.599 39.0857 117.347 39.0857 117.347Z" fill="#191919"/>
<path d="M42.8127 123.17C44.0349 123.17 45.0257 122.179 45.0257 120.957C45.0257 119.735 44.0349 118.744 42.8127 118.744C41.5906 118.744 40.5998 119.735 40.5998 120.957C40.5998 122.179 41.5906 123.17 42.8127 123.17Z" fill="#3F3D56"/>
<path d="M71.5812 123.17C72.8033 123.17 73.7941 122.179 73.7941 120.957C73.7941 119.735 72.8033 118.744 71.5812 118.744C70.359 118.744 69.3682 119.735 69.3682 120.957C69.3682 122.179 70.359 123.17 71.5812 123.17Z" fill="#3F3D56"/>
<path d="M62.4964 78.4451L55.7806 77.8094L53.4116 79.8428C51.2553 80.6426 49.8078 82.68 49.7621 84.9794L49.3934 103.545L66.6311 104.593C66.6311 104.593 64.7676 100.284 66.0488 99.4682C67.33 98.6529 68.1132 87.4717 67.0388 85.6664C65.9644 83.861 65.3499 81.7646 65.3499 81.7646L62.4964 78.4451Z" fill="#1A1919"/>
<path d="M49.8593 102.962L47.7628 108.204C47.7628 108.204 44.5016 115.541 47.6463 117.638C50.791 119.734 68.9606 118.104 68.9606 118.104C68.9606 118.104 70.7076 116.589 71.5229 113.445C72.3382 110.3 67.2135 105.292 67.2135 105.292L66.6311 104.593L49.8593 102.962Z" fill="#2F2E41"/>
<path d="M72.4075 116.593C72.7506 118.403 73.9625 119.693 75.1143 119.474C76.2661 119.256 76.9214 117.612 76.578 115.801C76.4507 115.076 76.1517 114.392 75.7059 113.806L74.1556 106.156L70.5811 106.96L72.4889 114.416C72.2883 115.125 72.2604 115.871 72.4075 116.593Z" fill="#FFB6B6"/>
<path d="M62.2457 90.295C62.2457 90.295 63.3726 91.6096 65.4613 91.9037C67.5501 92.1977 70.8143 111.527 70.8143 111.527L75.2962 109.677C75.2962 109.677 72.9123 92.1214 72.2478 90.9368C71.5833 89.7521 64.5657 80.91 64.5657 80.91L62.2457 90.295Z" fill="#1A1919"/>
<path d="M44.3214 117.11C43.9784 118.919 42.7665 120.209 41.6147 119.991C40.4629 119.772 39.8076 118.128 40.151 116.318C40.2782 115.593 40.5773 114.909 41.0231 114.323L42.5734 106.673L46.1479 107.477L44.2401 114.933C44.4406 115.642 44.4685 116.388 44.3214 117.11Z" fill="#FFB6B6"/>
<path d="M54.4832 90.8117C54.4832 90.8117 53.3564 92.1264 51.2676 92.4205C49.1789 92.7145 45.9146 112.044 45.9146 112.044L41.4328 110.194C41.4328 110.194 43.8167 92.6382 44.4812 91.4535C45.1457 90.2689 52.1633 81.4268 52.1633 81.4268L54.4832 90.8117Z" fill="#1A1919"/>
<path d="M63.6626 113.262L60.2368 110.275L52.1699 121.642L54.4912 123.666L63.6626 113.262Z" fill="#FFB6B6"/>
<path d="M69.31 116.473C69.31 116.473 75.483 106.224 75.7159 101.798C75.9488 97.3717 72.1053 96.7894 70.7076 97.7211C69.31 98.6529 54.2303 115.792 54.2303 115.792L58.9445 118.958L69.1444 110.835L69.31 116.473Z" fill="#2F2E41"/>
<path d="M51.9172 113.843L55.2196 110.721L63.7388 121.752L61.5011 123.868L51.9172 113.843Z" fill="#FFB6B6"/>
<path d="M46.5981 116.473C46.5981 116.473 40.4251 106.224 40.1921 101.798C39.9592 97.3717 43.8027 96.7894 45.2004 97.7211C46.5981 98.6529 60.5641 116.473 60.5641 116.473L56.9635 118.958L46.7636 110.835L46.5981 116.473Z" fill="#2F2E41"/>
<path d="M53.0622 119.676C53.0622 119.676 48.7528 121.889 48.9857 122.471C49.2187 123.054 49.4516 125.267 49.4516 125.267C49.4516 125.267 46.1904 127.48 49.1022 128.994C52.014 130.508 54.2269 130.391 54.5764 129.46C54.9258 128.528 55.0422 125.849 55.0422 125.849L56.5564 122.005L53.0622 119.676Z" fill="#2F2E41"/>
<path d="M62.7293 120.025C62.7293 120.025 67.0388 122.238 66.8058 122.821C66.5729 123.403 66.34 125.616 66.34 125.616C66.34 125.616 69.6012 127.829 66.6894 129.343C63.7776 130.857 61.5646 130.741 61.2152 129.809C60.8658 128.877 60.7493 126.198 60.7493 126.198L59.2352 122.355L62.7293 120.025Z" fill="#2F2E41"/>
<path d="M57.3464 71.6366C57.3548 71.638 57.3674 71.6402 57.3826 71.6427C57.6808 71.692 59.4839 71.9702 61.3017 71.2778C62.0718 70.9844 61.8091 70.9113 63.5242 69.8914C65.535 68.6957 66.051 68.7041 66.2008 68.1465C66.4998 67.0332 64.9032 65.2831 63.8465 65.3983C63.5682 65.4287 63.2703 65.5945 62.8068 65.4821C62.705 65.4574 62.2593 65.3492 62.042 64.9803C61.8482 64.6511 62.0124 64.4137 61.9344 64.1438C61.7298 63.4353 60.0241 63.0817 58.5287 63.3315C57.6686 63.4752 56.9996 63.8675 55.6968 64.6462C53.4291 66.0016 52.2953 66.6793 52.0405 67.7176C51.7989 68.7017 52.3786 69.1257 51.957 70.1792C51.5644 71.1601 50.9409 71.0946 50.7264 71.8881C50.3811 73.165 51.6626 74.5664 52.1964 75.1502C52.7817 75.7903 53.3415 76.1416 54.0846 76.6079C55.0173 77.1933 55.4837 77.4859 56.0444 77.4562C57.061 77.4022 58.0721 76.4809 58.1115 75.6396C58.1263 75.3244 57.9948 75.2298 57.6693 74.146C57.5337 73.6944 57.4396 73.3217 57.3824 73.0825" fill="#2F2E41"/>
<path d="M115.984 6.27244C117.716 6.27244 119.12 4.86831 119.12 3.13622C119.12 1.40413 117.716 0 115.984 0C114.252 0 112.848 1.40413 112.848 3.13622C112.848 4.86831 114.252 6.27244 115.984 6.27244Z" fill="#2F2E41"/>
<path d="M111.167 17.1953C114.939 17.1953 117.997 14.1374 117.997 10.3653C117.997 6.59324 114.939 3.53537 111.167 3.53537C107.395 3.53537 104.337 6.59324 104.337 10.3653C104.337 14.1374 107.395 17.1953 111.167 17.1953Z" fill="#A0616A"/>
<path d="M116.066 16.4284C116.884 16.5015 118.219 14.4084 118.16 12.3813C118.122 11.0772 119.254 10.8208 119.338 9.13903C119.387 8.15908 117.882 7.85353 117.778 7.06755C117.591 5.64343 116.672 4.68513 116.557 4.56864C115.567 3.56302 114.868 3.88994 113.704 2.72445C113.003 2.02278 113.183 1.83054 112.71 1.51931C111.348 0.621075 108.899 1.59459 107.435 2.90595C106.929 3.35973 105.04 2.86377 104.215 4.14521C103.243 5.65498 103.469 8.73397 103.886 9.14031C104.139 9.38718 104.717 8.78404 106.284 8.39695C107.736 8.03857 106.367 9.81088 108.044 9.51347C110.028 9.16177 110.416 8.55824 111.159 8.92022C111.945 9.30287 112.558 10.4877 112.38 11.4191C112.292 11.8813 112.035 12.1391 112.18 12.3741C112.444 12.8032 112.746 12.3824 113.085 12.813C113.478 13.3139 112.5 14.5988 112.685 14.7229C112.722 14.7479 112.834 14.7446 113.89 13.7294C114.311 13.3239 114.435 13.075 114.517 13.1132C114.651 13.1751 115.526 13.9903 115.192 14.6341C114.672 15.6359 115.337 15.6671 115.192 16.3415C115.042 17.0373 115.546 16.3819 116.066 16.4284Z" fill="#2F2E41"/>
</g>
<defs>
<clipPath id="clip0_31_1093">
<rect width="200" height="130.498" fill="white"/>
</clipPath>
</defs>
</svg>
